<svg width="271" height="93" viewBox="0 0 271 93" fill="none" xmlns="http://www.w3.org/2000/svg">
<path d="M9.428 93C4.692 93 0.852 89.16 0.852 84.424V82.76C0.852 78.024 4.692 74.184 9.428 74.184C14.164 74.184 18.004 78.024 18.004 82.76V84.424C18.004 89.16 14.164 93 9.428 93ZM90.852 75.848C95.588 75.848 99.428 79.688 99.428 84.424C99.428 89.16 95.588 93 90.852 93H41.06C36.324 93 32.484 89.16 32.484 84.424V9.8C32.484 5.064 36.324 1.224 41.06 1.224H90.852C95.588 1.224 99.428 5.064 99.428 9.8C99.428 14.536 95.588 18.376 90.852 18.376H49.636V38.6H83.556C88.292 38.6 92.132 42.44 92.132 47.176C92.132 51.912 88.292 55.752 83.556 55.752H49.636V75.848H90.852ZM160.543 47.176L186.655 79.048C189.599 82.76 189.087 88.136 185.503 91.08C183.839 92.488 181.919 93 179.999 93C177.567 93 175.135 91.976 173.343 89.928L149.407 60.616L125.343 89.928C123.679 91.976 121.247 93 118.815 93C116.895 93 114.975 92.488 113.311 91.08C109.599 88.136 109.087 82.76 112.159 79.048L138.271 47.176L112.159 15.176C109.087 11.592 109.599 6.216 113.311 3.144C117.023 0.199997 122.399 0.711998 125.343 4.296L149.407 33.608L173.343 4.296C176.415 0.711998 181.791 0.199997 185.503 3.144C189.087 6.216 189.599 11.592 186.655 15.176L160.543 47.176ZM261.977 75.848C266.713 75.848 270.553 79.688 270.553 84.424C270.553 89.16 266.713 93 261.977 93H212.185C207.449 93 203.609 89.16 203.609 84.424V9.8C203.609 5.064 207.449 1.224 212.185 1.224H261.977C266.713 1.224 270.553 5.064 270.553 9.8C270.553 14.536 266.713 18.376 261.977 18.376H220.761V38.6H254.681C259.417 38.6 263.257 42.44 263.257 47.176C263.257 51.912 259.417 55.752 254.681 55.752H220.761V75.848H261.977Z" fill="black"/>
</svg>
