<svg width="200" height="201" viewBox="0 0 200 201" fill="none" xmlns="http://www.w3.org/2000/svg">
<path fill-rule="evenodd" clip-rule="evenodd" d="M122 0.729218H47C21.0426 0.729218 0 21.7718 0 47.7292V153.729C0 179.687 21.0426 200.729 47 200.729H153C178.957 200.729 200 179.687 200 153.729V70.906C199.342 70.9682 198.675 71 198 71H143C131.402 71 122 61.598 122 50V0.729218ZM70 116.5C70 125.06 63.0604 132 54.5 132C45.9396 132 39 125.06 39 116.5C39 107.94 45.9396 101 54.5 101C63.0604 101 70 107.94 70 116.5ZM99.5 132C108.06 132 115 125.06 115 116.5C115 107.94 108.06 101 99.5 101C90.9396 101 84 107.94 84 116.5C84 125.06 90.9396 132 99.5 132ZM160 116.5C160 125.06 153.06 132 144.5 132C135.94 132 129 125.06 129 116.5C129 107.94 135.94 101 144.5 101C153.06 101 160 107.94 160 116.5Z" fill="white"/>
</svg>
