<svg width="200" height="200" viewBox="0 0 200 200" fill="none" xmlns="http://www.w3.org/2000/svg">
<path fill-rule="evenodd" clip-rule="evenodd" d="M122 0H47C21.0426 0 0 21.0426 0 47V153C0 178.957 21.0426 200 47 200H153C178.957 200 200 178.957 200 153V70.1768C199.342 70.239 198.675 70.2708 198 70.2708H143C131.402 70.2708 122 60.8688 122 49.2708V0ZM70 115.771C70 124.331 63.0604 131.271 54.5 131.271C45.9396 131.271 39 124.331 39 115.771C39 107.21 45.9396 100.271 54.5 100.271C63.0604 100.271 70 107.21 70 115.771ZM99.5 131.271C108.06 131.271 115 124.331 115 115.771C115 107.21 108.06 100.271 99.5 100.271C90.9396 100.271 84 107.21 84 115.771C84 124.331 90.9396 131.271 99.5 131.271ZM160 115.771C160 124.331 153.06 131.271 144.5 131.271C135.94 131.271 129 124.331 129 115.771C129 107.21 135.94 100.271 144.5 100.271C153.06 100.271 160 107.21 160 115.771Z" fill="#505050"/>
</svg>
