<svg width="253" height="253" viewBox="0 0 253 253" fill="none" xmlns="http://www.w3.org/2000/svg">
<path d="M247 55C247 40.6406 235.359 29 221 29H147.68C140.828 29 134.564 32.8713 131.5 39V39C128.436 45.1287 122.172 49 115.32 49H32C17.6406 49 6 60.6406 6 75V198C6 212.359 17.6406 224 32 224H221C235.359 224 247 212.359 247 198V55Z" fill="#242424"/>
<path d="M6 55C6 40.6406 17.6406 29 32 29H105.32C112.172 29 118.436 32.8713 121.5 39V39C124.564 45.1287 130.828 49 137.68 49H221C235.359 49 247 60.6406 247 75V198C247 212.359 235.359 224 221 224H32C17.6406 224 6 212.359 6 198V55Z" fill="#505050"/>
</svg>
