<svg width="253" height="253" viewBox="0 0 253 253" fill="none" xmlns="http://www.w3.org/2000/svg">
<rect x="12" y="35" width="229.222" height="156.588" rx="7" stroke="#505050" stroke-width="20"/>
<path d="M81.9829 135.121L129.001 188.121C129.859 189.088 129.173 190.616 127.879 190.616H33.8427C32.5491 190.616 31.8621 189.088 32.7206 188.121L79.7387 135.121C80.3355 134.449 81.3861 134.449 81.9829 135.121Z" fill="#505050" stroke="#505050"/>
<path d="M133.084 106.97L181.014 186.692C181.616 187.692 180.895 188.965 179.729 188.965H83.869C82.7024 188.965 81.9823 187.692 82.5834 186.692L130.513 106.97C131.096 106 132.502 106 133.084 106.97Z" fill="#505050" stroke="#505050"/>
<circle cx="198.301" cy="83.5799" r="26.384" fill="#505050" stroke="#505050"/>
</svg>
