<svg width="253" height="253" viewBox="0 0 253 253" fill="none" xmlns="http://www.w3.org/2000/svg">
<mask id="path-1-inside-1_352_126" fill="white">
<path d="M159.099 53.033C188.388 82.3224 188.388 129.81 159.099 159.099C129.81 188.388 82.3223 188.388 53.033 159.099C23.7437 129.81 23.7437 82.3224 53.033 53.033C82.3223 23.7437 129.81 23.7437 159.099 53.033ZM68.9429 143.189C89.4454 163.692 122.687 163.692 143.189 143.189C163.692 122.687 163.692 89.4455 143.189 68.9429C122.687 48.4404 89.4454 48.4404 68.9429 68.9429C48.4404 89.4455 48.4404 122.687 68.9429 143.189Z"/>
</mask>
<path d="M159.099 53.033C188.388 82.3224 188.388 129.81 159.099 159.099C129.81 188.388 82.3223 188.388 53.033 159.099C23.7437 129.81 23.7437 82.3224 53.033 53.033C82.3223 23.7437 129.81 23.7437 159.099 53.033ZM68.9429 143.189C89.4454 163.692 122.687 163.692 143.189 143.189C163.692 122.687 163.692 89.4455 143.189 68.9429C122.687 48.4404 89.4454 48.4404 68.9429 68.9429C48.4404 89.4455 48.4404 122.687 68.9429 143.189Z" fill="#505050" stroke="#505050" stroke-width="2" mask="url(#path-1-inside-1_352_126)"/>
<path d="M201.525 215.668C205.431 219.573 211.762 219.573 215.668 215.668C219.573 211.762 219.573 205.431 215.668 201.525L201.525 215.668ZM137.179 151.321L201.525 215.668L215.668 201.525L151.321 137.179L137.179 151.321Z" fill="#505050"/>
</svg>
