<svg width="253" height="253" viewBox="0 0 253 253" fill="none" xmlns="http://www.w3.org/2000/svg">
<path fill-rule="evenodd" clip-rule="evenodd" d="M17.0556 28.8071C16.5667 25.2057 19.3666 22 23.001 22H229.262C232.896 22 235.696 25.2057 235.207 28.8071L206.836 237.807C206.433 240.782 203.893 243 200.891 243H51.3721C48.3703 243 45.8304 240.782 45.4266 237.807L17.0556 28.8071ZM57.7145 46H35.0068C34.9925 46.3492 35.0086 46.7052 35.0575 47.0651L39.5368 80H61.7262L57.7145 46ZM41.9848 98H63.85L67.8618 132H46.609L41.9848 98ZM49.057 150H69.9856L73.9974 184H53.6812L49.057 150ZM56.1292 202L58.5164 219.552C58.9208 222.526 61.4604 224.743 64.4616 224.743H78.8048L76.1212 202H56.1292ZM94.2461 202L96.9296 224.743H116.725V202H94.2461ZM134.725 202V224.743H155.333L158.017 202H134.725ZM160.141 184H134.725V150H164.153L160.141 184ZM176.142 202L173.458 224.743H187.801C190.803 224.743 193.342 222.526 193.747 219.552L196.134 202H176.142ZM198.582 184H178.266L182.277 150H203.206L198.582 184ZM116.725 184H92.1222L88.1105 150H116.725V184ZM85.9866 132H116.725V98H81.9749L85.9866 132ZM134.725 132H166.276L170.288 98H134.725V132ZM184.401 132H205.654L210.278 98H188.413L184.401 132ZM79.8511 80H116.725V46H75.8393L79.8511 80ZM134.725 46V80H172.412L176.424 46H134.725ZM194.549 46L190.537 80H212.726L217.206 47.0651C217.254 46.7052 217.271 46.3492 217.256 46H194.549Z" fill="#777777"/>
<rect x="11" y="11" width="230" height="22" rx="11" fill="#505050"/>
</svg>
