<svg width="253" height="253" viewBox="0 0 253 253" fill="none" xmlns="http://www.w3.org/2000/svg">
<path d="M247 55C247 40.6406 235.359 29 221 29H147.68C140.828 29 134.564 32.8713 131.5 39V39C128.436 45.1287 122.172 49 115.32 49H32C17.6406 49 6 60.6406 6 75V198C6 212.359 17.6406 224 32 224H221C235.359 224 247 212.359 247 198V55Z" fill="#242424"/>
<path d="M6 55C6 40.6406 17.6406 29 32 29H105.32C112.172 29 118.436 32.8713 121.5 39V39C124.564 45.1287 130.828 49 137.68 49H221C235.359 49 247 60.6406 247 75V198C247 212.359 235.359 224 221 224H32C17.6406 224 6 212.359 6 198V55Z" fill="#505050"/>
<rect x="6" y="126" width="9" height="14" fill="url(#paint0_linear_352_126)"/>
<rect width="9" height="14" transform="matrix(1 0 0 -1 15 140)" fill="url(#paint1_linear_352_126)"/>
<rect x="24" y="126" width="9" height="14" fill="url(#paint2_linear_352_126)"/>
<rect width="9" height="14" transform="matrix(1 0 0 -1 33 140)" fill="url(#paint3_linear_352_126)"/>
<rect x="40" y="126" width="9" height="14" fill="url(#paint4_linear_352_126)"/>
<rect width="9" height="14" transform="matrix(1 0 0 -1 49 140)" fill="url(#paint5_linear_352_126)"/>
<rect x="58" y="126" width="9" height="14" fill="url(#paint6_linear_352_126)"/>
<rect width="9" height="14" transform="matrix(1 0 0 -1 67 140)" fill="url(#paint7_linear_352_126)"/>
<rect x="76" y="126" width="9" height="14" fill="url(#paint8_linear_352_126)"/>
<rect width="9" height="14" transform="matrix(1 0 0 -1 85 140)" fill="url(#paint9_linear_352_126)"/>
<rect x="94" y="126" width="9" height="14" fill="url(#paint10_linear_352_126)"/>
<rect width="9" height="14" transform="matrix(1 0 0 -1 103 140)" fill="url(#paint11_linear_352_126)"/>
<rect x="112" y="126" width="9" height="14" fill="url(#paint12_linear_352_126)"/>
<rect width="9" height="14" transform="matrix(1 0 0 -1 121 140)" fill="url(#paint13_linear_352_126)"/>
<rect x="130" y="126" width="9" height="14" fill="url(#paint14_linear_352_126)"/>
<rect width="9" height="14" transform="matrix(1 0 0 -1 139 140)" fill="url(#paint15_linear_352_126)"/>
<rect x="148" y="126" width="9" height="14" fill="url(#paint16_linear_352_126)"/>
<rect width="9" height="14" transform="matrix(1 0 0 -1 157 140)" fill="url(#paint17_linear_352_126)"/>
<rect x="166" y="126" width="9" height="14" fill="url(#paint18_linear_352_126)"/>
<rect width="9" height="14" transform="matrix(1 0 0 -1 175 140)" fill="url(#paint19_linear_352_126)"/>
<rect x="184" y="126" width="9" height="14" fill="url(#paint20_linear_352_126)"/>
<rect width="9" height="14" transform="matrix(1 0 0 -1 193 140)" fill="url(#paint21_linear_352_126)"/>
<rect x="202" y="126" width="9" height="14" fill="url(#paint22_linear_352_126)"/>
<rect x="220" y="126" width="9" height="14" fill="url(#paint23_linear_352_126)"/>
<rect width="9" height="14" transform="matrix(1 0 0 -1 229 140)" fill="url(#paint24_linear_352_126)"/>
<rect width="9" height="14" transform="matrix(-1 0 0 1 247 126)" fill="url(#paint25_linear_352_126)"/>
<rect width="9" height="14" transform="matrix(1 0 0 -1 211 140)" fill="url(#paint26_linear_352_126)"/>
<defs>
<linearGradient id="paint0_linear_352_126" x1="10.5" y1="126" x2="10.5" y2="140" gradientUnits="userSpaceOnUse">
<stop offset="0.4999" stop-color="#696969"/>
<stop offset="0.5" stop-color="#323232"/>
</linearGradient>
<linearGradient id="paint1_linear_352_126" x1="4.5" y1="0" x2="4.5" y2="14" gradientUnits="userSpaceOnUse">
<stop offset="0.4999" stop-color="#696969"/>
<stop offset="0.5" stop-color="#323232"/>
</linearGradient>
<linearGradient id="paint2_linear_352_126" x1="28.5" y1="126" x2="28.5" y2="140" gradientUnits="userSpaceOnUse">
<stop offset="0.4999" stop-color="#696969"/>
<stop offset="0.5" stop-color="#323232"/>
</linearGradient>
<linearGradient id="paint3_linear_352_126" x1="4.5" y1="0" x2="4.5" y2="14" gradientUnits="userSpaceOnUse">
<stop offset="0.4999" stop-color="#696969"/>
<stop offset="0.5" stop-color="#323232"/>
</linearGradient>
<linearGradient id="paint4_linear_352_126" x1="44.5" y1="126" x2="44.5" y2="140" gradientUnits="userSpaceOnUse">
<stop offset="0.4999" stop-color="#696969"/>
<stop offset="0.5" stop-color="#323232"/>
</linearGradient>
<linearGradient id="paint5_linear_352_126" x1="4.5" y1="0" x2="4.5" y2="14" gradientUnits="userSpaceOnUse">
<stop offset="0.4999" stop-color="#696969"/>
<stop offset="0.5" stop-color="#323232"/>
</linearGradient>
<linearGradient id="paint6_linear_352_126" x1="62.5" y1="126" x2="62.5" y2="140" gradientUnits="userSpaceOnUse">
<stop offset="0.4999" stop-color="#696969"/>
<stop offset="0.5" stop-color="#323232"/>
</linearGradient>
<linearGradient id="paint7_linear_352_126" x1="4.5" y1="0" x2="4.5" y2="14" gradientUnits="userSpaceOnUse">
<stop offset="0.4999" stop-color="#696969"/>
<stop offset="0.5" stop-color="#323232"/>
</linearGradient>
<linearGradient id="paint8_linear_352_126" x1="80.5" y1="126" x2="80.5" y2="140" gradientUnits="userSpaceOnUse">
<stop offset="0.4999" stop-color="#696969"/>
<stop offset="0.5" stop-color="#323232"/>
</linearGradient>
<linearGradient id="paint9_linear_352_126" x1="4.5" y1="0" x2="4.5" y2="14" gradientUnits="userSpaceOnUse">
<stop offset="0.4999" stop-color="#696969"/>
<stop offset="0.5" stop-color="#323232"/>
</linearGradient>
<linearGradient id="paint10_linear_352_126" x1="98.5" y1="126" x2="98.5" y2="140" gradientUnits="userSpaceOnUse">
<stop offset="0.4999" stop-color="#696969"/>
<stop offset="0.5" stop-color="#323232"/>
</linearGradient>
<linearGradient id="paint11_linear_352_126" x1="4.5" y1="0" x2="4.5" y2="14" gradientUnits="userSpaceOnUse">
<stop offset="0.4999" stop-color="#696969"/>
<stop offset="0.5" stop-color="#323232"/>
</linearGradient>
<linearGradient id="paint12_linear_352_126" x1="116.5" y1="126" x2="116.5" y2="140" gradientUnits="userSpaceOnUse">
<stop offset="0.4999" stop-color="#696969"/>
<stop offset="0.5" stop-color="#323232"/>
</linearGradient>
<linearGradient id="paint13_linear_352_126" x1="4.5" y1="0" x2="4.5" y2="14" gradientUnits="userSpaceOnUse">
<stop offset="0.4999" stop-color="#696969"/>
<stop offset="0.5" stop-color="#323232"/>
</linearGradient>
<linearGradient id="paint14_linear_352_126" x1="134.5" y1="126" x2="134.5" y2="140" gradientUnits="userSpaceOnUse">
<stop offset="0.4999" stop-color="#696969"/>
<stop offset="0.5" stop-color="#323232"/>
</linearGradient>
<linearGradient id="paint15_linear_352_126" x1="4.5" y1="0" x2="4.5" y2="14" gradientUnits="userSpaceOnUse">
<stop offset="0.4999" stop-color="#696969"/>
<stop offset="0.5" stop-color="#323232"/>
</linearGradient>
<linearGradient id="paint16_linear_352_126" x1="152.5" y1="126" x2="152.5" y2="140" gradientUnits="userSpaceOnUse">
<stop offset="0.4999" stop-color="#696969"/>
<stop offset="0.5" stop-color="#323232"/>
</linearGradient>
<linearGradient id="paint17_linear_352_126" x1="4.5" y1="0" x2="4.5" y2="14" gradientUnits="userSpaceOnUse">
<stop offset="0.4999" stop-color="#696969"/>
<stop offset="0.5" stop-color="#323232"/>
</linearGradient>
<linearGradient id="paint18_linear_352_126" x1="170.5" y1="126" x2="170.5" y2="140" gradientUnits="userSpaceOnUse">
<stop offset="0.4999" stop-color="#696969"/>
<stop offset="0.5" stop-color="#323232"/>
</linearGradient>
<linearGradient id="paint19_linear_352_126" x1="4.5" y1="0" x2="4.5" y2="14" gradientUnits="userSpaceOnUse">
<stop offset="0.4999" stop-color="#696969"/>
<stop offset="0.5" stop-color="#323232"/>
</linearGradient>
<linearGradient id="paint20_linear_352_126" x1="188.5" y1="126" x2="188.5" y2="140" gradientUnits="userSpaceOnUse">
<stop offset="0.4999" stop-color="#696969"/>
<stop offset="0.5" stop-color="#323232"/>
</linearGradient>
<linearGradient id="paint21_linear_352_126" x1="4.5" y1="0" x2="4.5" y2="14" gradientUnits="userSpaceOnUse">
<stop offset="0.4999" stop-color="#696969"/>
<stop offset="0.5" stop-color="#323232"/>
</linearGradient>
<linearGradient id="paint22_linear_352_126" x1="206.5" y1="126" x2="206.5" y2="140" gradientUnits="userSpaceOnUse">
<stop offset="0.4999" stop-color="#696969"/>
<stop offset="0.5" stop-color="#323232"/>
</linearGradient>
<linearGradient id="paint23_linear_352_126" x1="224.5" y1="126" x2="224.5" y2="140" gradientUnits="userSpaceOnUse">
<stop offset="0.4999" stop-color="#696969"/>
<stop offset="0.5" stop-color="#323232"/>
</linearGradient>
<linearGradient id="paint24_linear_352_126" x1="4.5" y1="0" x2="4.5" y2="14" gradientUnits="userSpaceOnUse">
<stop offset="0.4999" stop-color="#696969"/>
<stop offset="0.5" stop-color="#323232"/>
</linearGradient>
<linearGradient id="paint25_linear_352_126" x1="4.5" y1="0" x2="4.5" y2="14" gradientUnits="userSpaceOnUse">
<stop offset="0.4999" stop-color="#696969"/>
<stop offset="0.5" stop-color="#323232"/>
</linearGradient>
<linearGradient id="paint26_linear_352_126" x1="4.5" y1="0" x2="4.5" y2="14" gradientUnits="userSpaceOnUse">
<stop offset="0.4999" stop-color="#696969"/>
<stop offset="0.5" stop-color="#323232"/>
</linearGradient>
</defs>
</svg>
